# xmcd
#
# Track frame offsets: 
#        150
#        21205
#        39720
#        58377
#        80735
#        98880
#        119075
#        134547
#        151427
#        167652
#        186427
#        207482
#        229560
#        248445
#        270930
#
# Disc length: 3930 seconds
#
# Revision: 4
# Processed by: cddbd v1.5.1PL0 Copyright (c) Steve Scherf et al.
# Submitted via: ExactAudioCopy v0.90b4
#
DISCID=d60f580f
DTITLE=Glenn Lewis - World Outside My Window
DYEAR=2002
DGENRE=R&B
TTITLE0=Simple Things
TTITLE1=Beautiful Eyes
TTITLE2=Don't You Forget It
TTITLE3=Something to See
TTITLE4=Lonely
TTITLE5=This Love
TTITLE6=One More Day
TTITLE7=Dream
TTITLE8=Is It True
TTITLE9=Never Too Late
TTITLE10=Take Me
TTITLE11=Sorry
TTITLE12=Take You High
TTITLE13=It's Not Fair
TTITLE14=For You (Your Song)
EXTD=YEAR: 2002
EXTT0=
EXTT1=
EXTT2=
EXTT3=
EXTT4=
EXTT5=
EXTT6=
EXTT7=
EXTT8=
EXTT9=
EXTT10=
EXTT11=
EXTT12=
EXTT13=
EXTT14=
PLAYORDER=
